<?xml version="1.0" encoding="iso-8859-1"?>
<!-- Generator: Adobe Illustrator 19.0.0, SVG Export Plug-In . SVG Version: 6.00 Build 0)  -->
<svg version="1.1" id="Capa_1" xmlns="http://www.w3.org/2000/svg" xmlns:xlink="http://www.w3.org/1999/xlink" x="0px" y="0px"
	 viewBox="0 0 512 512" style="enable-background:new 0 0 512 512;" xml:space="preserve">
<g>
	<g>
		<path d="M503.388,219.321L345.479,111.104c-10.76-7.373-24.61-8.176-36.152-2.096c-11.539,6.081-18.708,17.962-18.708,31.006
			v18.133h29.877v-18.134c0-2.715,1.729-4.031,2.76-4.574c1.032-0.543,3.094-1.224,5.333,0.31l126.503,86.693l-164.471,17.107
			v12.156c-10.065-6.38-21.96-10.069-34.618-10.069c-12.379,0-24.33,3.495-34.622,9.992v-12.078L56.908,222.442l126.502-86.693
			c2.238-1.533,4.301-0.852,5.333-0.31c1.031,0.543,2.76,1.859,2.76,4.574v18.134h29.877v-18.134
			c0-13.044-7.168-24.924-18.708-31.006c-11.539-6.08-25.391-5.277-36.151,2.096L6.864,220.52l8.146,11.887v0.001l-8.159-11.88
			L0,225.234v71.123c0,29.722,11.618,57.622,32.713,78.562c20.893,20.739,48.551,32.13,77.967,32.129
			c0.281,0,0.565-0.001,0.846-0.003c57.793-0.428,105.302-46.14,109.543-103.529c1.549-17.962,16.852-32.004,34.932-32.004
			c18.154,0,33.399,14.038,34.931,32.046c4.26,57.369,51.762,103.058,109.54,103.487c0.283,0.002,0.564,0.003,0.846,0.003
			c29.415-0.001,57.076-11.391,77.968-32.129C500.383,353.981,512,326.08,512,296.358v-71.133L503.388,219.321z"/>
	</g>
</g>
<g>
</g>
<g>
</g>
<g>
</g>
<g>
</g>
<g>
</g>
<g>
</g>
<g>
</g>
<g>
</g>
<g>
</g>
<g>
</g>
<g>
</g>
<g>
</g>
<g>
</g>
<g>
</g>
<g>
</g>
</svg>
